<svg width="80" height="60" viewBox="0 0 80 60" version="1.1" xmlns="http://www.w3.org/2000/svg" xmlns:xlink="http://www.w3.org/1999/xlink">
<title>fiat-logo-white</title>
<desc>Created using Figma</desc>
<g id="Canvas" transform="translate(-607 2901)">
<g id="fiat-logo-white">
<use xlink:href="#path0_fill" transform="translate(607 -2901)" fill="#FFFFFF"/>
<use xlink:href="#path1_fill" transform="translate(607 -2901)" fill="#FFFFFF"/>
<use xlink:href="#path2_fill" transform="translate(607 -2901)" fill="#FFFFFF"/>
<use xlink:href="#path3_fill" transform="translate(607 -2901)" fill="#FFFFFF"/>
<use xlink:href="#path4_fill" transform="translate(607 -2901)" fill="#FFFFFF"/>
</g>
</g>
<defs>
<path id="path0_fill" d="M 6 5L 7.35236 56L 13.9265 56L 13.7823 34.8508L 19.2949 34.8508L 19.2949 28.2583L 13.7823 28.2583L 13.8029 11.6636L 21 11.6636L 20.9612 5L 6 5Z"/>
<path id="path1_fill" d="M 24 5L 24.8576 56L 31.8578 56L 32 5L 24 5Z"/>
<path id="path2_fill" d="M 55 11.4329L 55 5L 73.9581 5L 74 11.4253L 68.5348 11.4253L 67.1014 56L 60.352 56L 60.5106 11.4329L 55 11.4329Z"/>
<path id="path3_fill" fill-rule="evenodd" d="M 35.5635 56L 41.7212 56L 41.7899 34.9106L 49.1682 34.9106C 49.7482 38.6331 49.8903 50.1233 49.925 56L 55.8984 56C 56.462 29.9629 54.7112 15.2456 49.8739 5L 35 5L 35.5635 56ZM 41.5706 11.2812L 41.4976 28.6047L 48.8981 28.6047C 48.0499 20.2417 46.968 15.1396 45.2842 11.2812L 41.5706 11.2812Z"/>
<path id="path4_fill" fill-rule="evenodd" d="M 6 5L 7.35236 56L 13.9265 56L 13.7823 34.8508L 19.2949 34.8508L 19.2949 28.2583L 13.7823 28.2583L 13.8029 11.6636L 21 11.6636L 20.9612 5L 6 5ZM 24 5L 24.8576 56L 31.8578 56L 32 5L 24 5ZM 55 11.4329L 55 5L 73.9581 5L 74 11.4253L 68.5348 11.4253L 67.1014 56L 60.352 56L 60.5106 11.4329L 55 11.4329ZM 41.7212 56L 41.7899 34.9106L 49.1682 34.9106C 49.7482 38.6331 49.8903 50.1233 49.925 56L 55.8984 56C 56.462 29.9629 54.7112 15.2456 49.8739 5L 35 5L 35.5635 56L 41.7212 56ZM 41.5706 11.2812L 41.4976 28.6047L 48.8981 28.6047C 48.0499 20.2417 46.968 15.1396 45.2842 11.2812L 41.5706 11.2812Z"/>
</defs>
</svg>
